<?xml version="1.0" encoding="UTF-8" standalone="no"?>
<!-- Created with Inkscape (http://www.inkscape.org/) -->

<svg
   xmlns:dc="http://purl.org/dc/elements/1.1/"
   xmlns:cc="http://creativecommons.org/ns#"
   xmlns:rdf="http://www.w3.org/1999/02/22-rdf-syntax-ns#"
   xmlns:svg="http://www.w3.org/2000/svg"
   xmlns="http://www.w3.org/2000/svg"
   xmlns:sodipodi="http://sodipodi.sourceforge.net/DTD/sodipodi-0.dtd"
   xmlns:inkscape="http://www.inkscape.org/namespaces/inkscape"
   id="svg4437"
   version="1.1"
   inkscape:version="0.92.4 (unknown)"
   width="307"
   height="158"
   sodipodi:docname="satellite.svg">
  <metadata
     id="metadata4443">
    <rdf:RDF>
      <cc:Work
         rdf:about="">
        <dc:format>image/svg+xml</dc:format>
        <dc:type
           rdf:resource="http://purl.org/dc/dcmitype/StillImage" />
        <dc:title></dc:title>
      </cc:Work>
    </rdf:RDF>
  </metadata>
  <defs
     id="defs4441" />
  <sodipodi:namedview
     pagecolor="#ffffff"
     bordercolor="#666666"
     borderopacity="1"
     objecttolerance="10"
     gridtolerance="10"
     guidetolerance="10"
     inkscape:pageopacity="0"
     inkscape:pageshadow="2"
     inkscape:window-width="2560"
     inkscape:window-height="1376"
     id="namedview4439"
     showgrid="false"
     inkscape:zoom="2.0064155"
     inkscape:cx="404.11031"
     inkscape:cy="175.13214"
     inkscape:window-x="2560"
     inkscape:window-y="27"
     inkscape:window-maximized="1"
     inkscape:current-layer="svg4437">
    <inkscape:grid
       type="xygrid"
       id="grid4959" />
  </sodipodi:namedview>
  <g
     inkscape:groupmode="layer"
     id="layer1"
     inkscape:label="Layer 1"
     transform="translate(0,-242)">
    <path
       style="fill:#000000;fill-opacity:1;stroke:none"
       d="m 115.77577,336.08354 17.81454,-48.43596 24.69555,-3.13086 11.31724,3.2219 20.68325,19.13803 -17.60732,50.11469 -23.51037,9.49468 -22.92646,-7.97442 z"
       id="path4448"
       inkscape:connector-curvature="0"
       sodipodi:nodetypes="ccccccccc" />
  </g>
  <g
     inkscape:groupmode="layer"
     id="layer2"
     inkscape:label="Layer2"
     transform="translate(0,-242)">
    <path
       style="fill:#000000;fill-opacity:1;stroke:none"
       d="m 121.6147,377.93505 10.57545,-18.33761 11.59408,3.95814 -2.84607,20.97636 z"
       id="path4961"
       inkscape:connector-curvature="0" />
  </g>
  <g
     id="g4978"
     transform="rotate(-18.168185,-166.03465,383.32882)"
     style="fill:#000000;fill-opacity:1;stroke:none;stroke-opacity:1">
    <path
       sodipodi:nodetypes="ssssssssssssssssss"
       inkscape:connector-curvature="0"
       id="path4963"
       d="m 290.03125,131.375 c -5.12246,0 -15.85135,7.26238 -18.87486,12.80548 -3.02351,5.5431 -5.16493,8.80227 -5.16493,17.05217 0,8.2499 1.78899,12.21393 4.8125,17.75703 3.02351,5.5431 14.10483,13.51032 19.22729,13.51032 5.12246,0 9.50774,-3.73815 12.53125,-9.28125 3.02351,-5.5431 4.84375,-13.03135 4.84375,-21.28125 0,-8.2499 -1.82024,-15.73815 -4.84375,-21.28125 -3.02351,-5.5431 -7.40879,-9.28125 -12.53125,-9.28125 z m 0,3 c 3.63625,0 7.18992,2.73881 9.90625,7.71875 2.71633,4.97994 4.46875,12.03603 4.46875,19.84375 0,7.80772 -1.75242,14.86381 -4.46875,19.84375 -2.71633,4.97994 -6.27,7.71875 -9.90625,7.71875 -3.63625,0 -7.15867,-2.73881 -9.875,-7.71875 -2.71633,-4.97994 -4.46875,-12.03603 -4.46875,-19.84375 0,-7.80772 1.75242,-14.86381 4.46875,-19.84375 2.71633,-4.97994 6.23875,-7.71875 9.875,-7.71875 z"
       style="color:#000000;font-style:normal;font-variant:normal;font-weight:normal;font-stretch:normal;font-size:medium;line-height:normal;font-family:Sans;-inkscape-font-specification:Sans;text-indent:0;text-align:start;text-decoration:none;text-decoration-line:none;letter-spacing:normal;word-spacing:normal;text-transform:none;writing-mode:lr-tb;direction:ltr;baseline-shift:baseline;text-anchor:start;display:inline;overflow:visible;visibility:visible;fill:#000000;fill-opacity:1;fill-rule:evenodd;stroke:none;stroke-width:3;marker:none;enable-background:accumulate" />
    <rect
       ry="0.23655923"
       y="143.4912"
       x="269.29535"
       height="0.7551648"
       width="33.616547"
       id="rect4969"
       style="fill:#000000;fill-opacity:1;fill-rule:evenodd;stroke:none"
       transform="matrix(0.99806914,0.06211281,0.07469932,0.9972061,0,0)" />
    <ellipse
       transform="matrix(0.77587022,0,0,0.80357988,69.860721,32.761382)"
       id="path4975"
       style="fill:#000000;fill-opacity:1;fill-rule:evenodd;stroke:none;stroke-width:2.0940001;stroke-miterlimit:4;stroke-dasharray:none;stroke-opacity:1"
       cx="314.44934"
       cy="161.4097"
       rx="2.5550661"
       ry="2.4669604" />
  </g>
  <rect
     style="fill:#000000;fill-opacity:1;fill-rule:evenodd;stroke:none"
     id="rect4983"
     width="3.7996066"
     height="23.331676"
     x="150.11719"
     y="-98.335892"
     ry="0.40695283"
     transform="matrix(0.72487381,0.68888167,-0.71868209,0.69533881,0,0)" />
  <rect
     style="fill:#000000;fill-opacity:1;fill-rule:evenodd;stroke:none;stroke-width:2.0940001;stroke-miterlimit:4;stroke-dasharray:none;stroke-opacity:1"
     id="rect4985"
     width="23.964754"
     height="23.612339"
     x="48.285038"
     y="26.776302"
     ry="0"
     transform="rotate(19.88622)" />
  <rect
     ry="0"
     y="-1.7701057"
     x="48.285038"
     height="23.612339"
     width="23.964754"
     id="rect4987"
     style="fill:#000000;fill-opacity:1;fill-rule:evenodd;stroke:none;stroke-width:2.0940001;stroke-miterlimit:4;stroke-dasharray:none;stroke-opacity:1"
     transform="rotate(19.88622)" />
  <rect
     ry="0"
     y="26.776302"
     x="77.183228"
     height="23.612339"
     width="23.964754"
     id="rect4991"
     style="fill:#000000;fill-opacity:1;fill-rule:evenodd;stroke:none;stroke-width:2.0940001;stroke-miterlimit:4;stroke-dasharray:none;stroke-opacity:1"
     transform="rotate(19.88622)" />
  <rect
     style="fill:#000000;fill-opacity:1;fill-rule:evenodd;stroke:none;stroke-width:2.0940001;stroke-miterlimit:4;stroke-dasharray:none;stroke-opacity:1"
     id="rect4993"
     width="23.964754"
     height="23.612339"
     x="77.183228"
     y="-1.7701057"
     ry="0"
     transform="rotate(19.88622)" />
  <rect
     style="fill:#000000;fill-opacity:1;fill-rule:evenodd;stroke:none;stroke-width:2.0940001;stroke-miterlimit:4;stroke-dasharray:none;stroke-opacity:1"
     id="rect4995"
     width="23.964754"
     height="23.612339"
     x="19.034573"
     y="26.423878"
     ry="0"
     transform="rotate(19.88622)" />
  <rect
     ry="0"
     y="-1.7701057"
     x="19.386967"
     height="23.612339"
     width="23.964754"
     id="rect4997"
     style="fill:#000000;fill-opacity:1;fill-rule:evenodd;stroke:none;stroke-width:2.0940001;stroke-miterlimit:4;stroke-dasharray:none;stroke-opacity:1"
     transform="rotate(19.88622)" />
  <rect
     ry="0"
     y="26.776302"
     x="106.78786"
     height="23.612339"
     width="23.964754"
     id="rect4999"
     style="fill:#000000;fill-opacity:1;fill-rule:evenodd;stroke:none;stroke-width:2.0940001;stroke-miterlimit:4;stroke-dasharray:none;stroke-opacity:1"
     transform="rotate(19.88622)" />
  <rect
     style="fill:#000000;fill-opacity:1;fill-rule:evenodd;stroke:none;stroke-width:2.0940001;stroke-miterlimit:4;stroke-dasharray:none;stroke-opacity:1"
     id="rect5001"
     width="23.964754"
     height="23.612339"
     x="106.78786"
     y="-1.7701057"
     ry="0"
     transform="rotate(19.88622)" />
  <rect
     transform="rotate(19.88622)"
     ry="0"
     y="27.104183"
     x="242.16132"
     height="23.612339"
     width="23.964754"
     id="rect5003"
     style="fill:#000000;fill-opacity:1;fill-rule:evenodd;stroke:none;stroke-width:2.0940001;stroke-miterlimit:4;stroke-dasharray:none;stroke-opacity:1" />
  <rect
     transform="rotate(19.88622)"
     style="fill:#000000;fill-opacity:1;fill-rule:evenodd;stroke:none;stroke-width:2.0940001;stroke-miterlimit:4;stroke-dasharray:none;stroke-opacity:1"
     id="rect5005"
     width="23.964754"
     height="23.612339"
     x="242.16132"
     y="-1.4422622"
     ry="0" />
  <rect
     transform="rotate(19.88622)"
     style="fill:#000000;fill-opacity:1;fill-rule:evenodd;stroke:none;stroke-width:2.0940001;stroke-miterlimit:4;stroke-dasharray:none;stroke-opacity:1"
     id="rect5007"
     width="23.964754"
     height="23.612339"
     x="271.05969"
     y="27.104183"
     ry="0" />
  <rect
     transform="rotate(19.88622)"
     ry="0"
     y="-1.4422622"
     x="271.05969"
     height="23.612339"
     width="23.964754"
     id="rect5009"
     style="fill:#000000;fill-opacity:1;fill-rule:evenodd;stroke:none;stroke-width:2.0940001;stroke-miterlimit:4;stroke-dasharray:none;stroke-opacity:1" />
  <rect
     transform="rotate(19.88622)"
     ry="0"
     y="26.751751"
     x="212.91084"
     height="23.612339"
     width="23.964754"
     id="rect5011"
     style="fill:#000000;fill-opacity:1;fill-rule:evenodd;stroke:none;stroke-width:2.0940001;stroke-miterlimit:4;stroke-dasharray:none;stroke-opacity:1" />
  <rect
     transform="rotate(19.88622)"
     style="fill:#000000;fill-opacity:1;fill-rule:evenodd;stroke:none;stroke-width:2.0940001;stroke-miterlimit:4;stroke-dasharray:none;stroke-opacity:1"
     id="rect5013"
     width="23.964754"
     height="23.612339"
     x="213.26323"
     y="-1.4422622"
     ry="0" />
  <rect
     transform="rotate(19.88622)"
     style="fill:#000000;fill-opacity:1;fill-rule:evenodd;stroke:none;stroke-width:2.0940001;stroke-miterlimit:4;stroke-dasharray:none;stroke-opacity:1"
     id="rect5015"
     width="23.964754"
     height="23.612339"
     x="300.66321"
     y="27.104183"
     ry="0" />
  <rect
     transform="rotate(19.88622)"
     ry="0"
     y="-1.4422622"
     x="300.66321"
     height="23.612339"
     width="23.964754"
     id="rect5017"
     style="fill:#000000;fill-opacity:1;fill-rule:evenodd;stroke:none;stroke-width:2.0940001;stroke-miterlimit:4;stroke-dasharray:none;stroke-opacity:1" />
</svg>
