<svg width="247" height="160.21" viewBox="0 0 247 160.21" xmlns="http://www.w3.org/2000/svg">
 <g transform="matrix(1.3333 0 0 -1.3333 -586.06 1077.2)">
  <g transform="matrix(2.34 0 0 2.34 -710.33 -1004.8)">
   <path d="m527.66 774.13c-26.512 0.48555-35.862-15.434-35.717-24.283l0.0527-3.1919c0.763 0.865 1.574 1.8326 2.395 2.7056-1.489-2.462-1.4886-5.7327-1.0796-9.2637 0.714 0.817 1.3824 1.6883 2.0464 2.3643-0.786-3.159-0.44977-6.538-0.34277-9.75 0.814 1.001 1.633 2.0466 2.48 3.0396-0.626-3.839-0.01-6.125 0.74707-9.835 6.378 12.219 17.478 27.986 32.032 31.967-0.164-0.531-0.27923-1.0786-0.30323-1.5996-0.198-4.341 3.1575-8.0222 7.5015-8.2192 4.778-0.218 8.5596 3.8217 8.2046 8.4697 1.712-2.268 2.6728-4.7296 5.8198-5.3716 0.933-0.191 1.806-0.18197 2.606-0.022-5.015-4.122-10.452-10.172-10.931-14.186-2e-3 0-4e-3 -1e-3 -6e-3 0-2e-3 -0.026-2e-3 -0.0512-3e-3 -0.0762-2e-3 -0.016-4e-3 -0.0319-6e-3 -0.0469 0 0 2e-3 -3e-3 3e-3 -3e-3 -0.253-5.241 2.6878-9.7289 8.4668-9.9829 5.345-0.236 8.376 4.2861 8.376 4.2861-7.801-1.756-8.0901 1.208-7.6201 2.606l0.40577 1.207-1.2188 0.3706c-2.196 0.669-4.48 1.1591-6.769 1.4561 4.325 6.504 18.856 1.6063 17.067-6.7207l-0.25342-2.7422 2.2866 1.5059c9.463 6.231 7.8901 22.802-2.7978 26.729l-0.41455-0.14209c-0.701-0.253-1.5526-0.69427-2.4976-1.2803 0.656 1.126 0.97705 2.434 0.87305 3.709-0.237 2.836-1.8203 4.8623-3.1333 6.1333-6.685 6.466-14.607 9.4409-25.651 10.068-0.89122 0.0506-1.7639 0.0825-2.6191 0.0981zm0.50976-18.341s-1.8569-0.52911-2.7129-0.93311c-0.809-0.382-1.9278-0.99313-3.2168-1.9321-1.227-0.893-2.6871-2.1509-3.3501-3.5889-0.492-1.064-0.59473-2.833-0.59473-2.833 2.021 0.897 6.6187 3.0011 7.9907 0.0381 0.402-0.871 5e-3 -3.0403-4.5732-4.9043-3.977-1.618-7.632-4.2911-7.897-8.6221-0.232-3.798 1.9816-7.984 7.8896-9.022 5.153-0.905 9.7026 0.86236 13.329 3.9434-0.018-0.15-0.0293-0.30057-0.0293-0.45557 0-2.055 1.6486-3.7251 3.7236-3.7251 2.068 0 3.7251 1.6681 3.7251 3.7251 0 2.065-1.6531 3.7368-3.7251 3.7368-0.197 0-0.38915-0.0193-0.57715-0.0483 4.096 5.117 6.302 11.868 5.811 16.847-2.127-0.91-4.1874-1.7511-6.5684-1.6421-5.637 0.257-8.4261 4.413-9.2241 9.416z" fill="#fcd116"/>
   <path d="m527.64 772.89c-25.956 0.48118-34.593-15.015-34.463-23.026 1.343 1.522 3.3623 3.1116 4.6143 3.6196-2.449-3.545-3.4793-6.6608-3.4893-10.361 1.368 1.724 2.4357 2.4504 3.8247 3.0234-2.072-3.944-2.1082-6.5263-1.9892-10.091 1.324 1.628 2.3792 2.5991 3.5112 3.0791 0 0-1.893-4.669-0.89502-9.561 8.809 16.875 22.736 28.343 33.62 30.023-0.515-0.892-1.1194-2.2725-1.1704-3.3735-0.166-3.659 2.6627-6.7602 6.3237-6.9272 3.658-0.166 6.7588 2.6657 6.9258 6.3237 0.063 1.375-0.2978 2.6716-0.9668 3.7646 1.217-0.204 2.5653-1.08 3.5303-2.625 1.556-2.491 2.7396-3.9827 4.7256-4.3887 3.729-0.761 6.3294 2.3735 6.0864 5.3555-0.202 2.411-1.5492 4.1722-2.7612 5.3452-6.421 6.211-14.033 9.1072-24.86 9.7222-0.87362 0.0496-1.7291 0.0812-2.5664 0.0967zm33.445-18.662c-3.504-1.199-12.448-8.9933-15.458-14.635 5.602 3.437 19.046 0.62845 17.59-9.7485 9.243 6.086 6.3536 21.267-2.1314 24.384zm-33.92-0.0146s-1.7577-0.51594-4.1997-2.2939c-2.733-1.988-3.0439-3.3442-3.0439-3.3442 3.614 1.606 6.5629 0.46949 7.4839-1.5205 0.922-1.993-0.62549-4.6948-5.2295-6.5698-3.888-1.582-6.9099-3.9833-7.1279-7.5513-0.196-3.202 1.6117-6.8045 6.8686-7.7285 9.94-1.745 20.533 9.496 20.767 20.915-1.448-0.619-3.6691-1.0628-5.3481-0.98584-5.209 0.237-9.3804 4.1251-10.17 9.0791zm17.249-18.672c0.072-3.985 3.2301-7.2779 7.2671-7.4619 1.838-0.084 3.5535 0.50923 4.9175 1.5322-4.366-0.79-6.2286 2.027-5.3906 4.519-2.343 0.713-5.825 1.3246-6.794 1.4106zm-5.688-5.5269c-1.388 0-2.4873-1.1125-2.4873-2.5005 0-1.376 1.0993-2.4873 2.4873-2.4873 1.382 0 2.4888 1.1113 2.4888 2.4873 0 1.388-1.1068 2.5005-2.4888 2.5005zm0-0.59179c1.068 0 1.897-0.7907 1.897-1.9087 0-1.106-0.82898-1.8984-1.897-1.8984-1.087 0-1.897 0.79244-1.897 1.8984 0 1.118 0.80998 1.9087 1.897 1.9087zm-0.9917-0.58301v-2.5884h0.57714v1.0928h0.40137l0.58008-1.0928h0.62695l-0.62695 1.0928c0.458 0.031 0.70312 0.22613 0.70312 0.70313 0 0.685-0.40788 0.79248-1.0049 0.79248zm0.57714-0.45264h0.55957c0.251 0 0.58448-6.7e-4 0.58448-0.26367 0-0.327-0.16264-0.38965-0.45264-0.38965h-0.69141z"/>
  </g>
 </g>
</svg>
