<?xml version="1.0" encoding="UTF-8" standalone="no"?>
<!-- Created with Inkscape (http://www.inkscape.org/) -->

<svg
   width="115mm"
   height="50mm"
   viewBox="0 0 115 50"
   version="1.1"
   id="svg5"
   xml:space="preserve"
   inkscape:version="1.2.2 (b0a8486541, 2022-12-01)"
   sodipodi:docname="logo_speasy.svg"
   inkscape:export-filename="logo_speasy_400dpi.png"
   inkscape:export-xdpi="400"
   inkscape:export-ydpi="400"
   xmlns:inkscape="http://www.inkscape.org/namespaces/inkscape"
   xmlns:sodipodi="http://sodipodi.sourceforge.net/DTD/sodipodi-0.dtd"
   xmlns:xlink="http://www.w3.org/1999/xlink"
   xmlns="http://www.w3.org/2000/svg"
   xmlns:svg="http://www.w3.org/2000/svg"><sodipodi:namedview
     id="namedview7"
     pagecolor="#ffffff"
     bordercolor="#666666"
     borderopacity="1.0"
     inkscape:showpageshadow="2"
     inkscape:pageopacity="0.0"
     inkscape:pagecheckerboard="0"
     inkscape:deskcolor="#d1d1d1"
     inkscape:document-units="mm"
     showgrid="false"
     inkscape:zoom="2.587745"
     inkscape:cx="132.1614"
     inkscape:cy="96.60921"
     inkscape:window-width="2560"
     inkscape:window-height="1371"
     inkscape:window-x="0"
     inkscape:window-y="0"
     inkscape:window-maximized="1"
     inkscape:current-layer="layer1" /><defs
     id="defs2"><linearGradient
       inkscape:collect="always"
       id="linearGradient4056"><stop
         style="stop-color:#306998;stop-opacity:1;"
         offset="0"
         id="stop4054" /><stop
         style="stop-color:#375966;stop-opacity:1;"
         offset="0.35216635"
         id="stop6248" /><stop
         style="stop-color:#6c6c6c;stop-opacity:1;"
         offset="0.45091841"
         id="stop6250" /><stop
         style="stop-color:#707070;stop-opacity:1;"
         offset="1"
         id="stop4052" /></linearGradient><linearGradient
       inkscape:collect="always"
       id="linearGradient2573"><stop
         style="stop-color:#ffdf5a;stop-opacity:1;"
         offset="0"
         id="stop2569" /><stop
         style="stop-color:#ffdf5a;stop-opacity:0;"
         offset="1"
         id="stop2571" /></linearGradient><linearGradient
       inkscape:collect="always"
       id="linearGradient15442"><stop
         style="stop-color:#ffdf5a;stop-opacity:0;"
         offset="0"
         id="stop15438" /><stop
         style="stop-color:#ffdf5a;stop-opacity:0.49803922;"
         offset="0.18339248"
         id="stop1115" /><stop
         style="stop-color:#ffdf5a;stop-opacity:1;"
         offset="1"
         id="stop15440" /></linearGradient><linearGradient
       inkscape:collect="always"
       id="linearGradient7440"><stop
         style="stop-color:#5a9fd4;stop-opacity:0.50008416;"
         offset="0"
         id="stop7436" /><stop
         style="stop-color:#306998;stop-opacity:1;"
         offset="1"
         id="stop7438" /></linearGradient><linearGradient
       id="linearGradient2795"><stop
         style="stop-color:#b8b8b8;stop-opacity:0.49803922;"
         offset="0"
         id="stop2797" /><stop
         style="stop-color:#7f7f7f;stop-opacity:0;"
         offset="1"
         id="stop2799" /></linearGradient><linearGradient
       id="linearGradient2787"><stop
         style="stop-color:#7f7f7f;stop-opacity:0.5;"
         offset="0"
         id="stop2789" /><stop
         style="stop-color:#7f7f7f;stop-opacity:0;"
         offset="1"
         id="stop2791" /></linearGradient><linearGradient
       id="linearGradient3676"><stop
         style="stop-color:#b2b2b2;stop-opacity:0.5;"
         offset="0"
         id="stop3678" /><stop
         style="stop-color:#b3b3b3;stop-opacity:0;"
         offset="1"
         id="stop3680" /></linearGradient><linearGradient
       id="linearGradient3236"><stop
         style="stop-color:#f4f4f4;stop-opacity:1"
         offset="0"
         id="stop3244" /><stop
         style="stop-color:white;stop-opacity:1"
         offset="1"
         id="stop3240" /></linearGradient><linearGradient
       id="linearGradient4671"><stop
         style="stop-color:#ffd43b;stop-opacity:1;"
         offset="0"
         id="stop4673" /><stop
         style="stop-color:#ffe873;stop-opacity:1"
         offset="1"
         id="stop4675" /></linearGradient><linearGradient
       id="linearGradient4689"><stop
         style="stop-color:#5a9fd4;stop-opacity:1;"
         offset="0"
         id="stop4691" /><stop
         style="stop-color:#306998;stop-opacity:1;"
         offset="1"
         id="stop4693" /></linearGradient><linearGradient
       x1="224.23996"
       y1="144.75717"
       x2="-65.308502"
       y2="144.75717"
       id="linearGradient2987"
       xlink:href="#linearGradient4671"
       gradientUnits="userSpaceOnUse"
       gradientTransform="translate(100.2702,99.61116)" /><linearGradient
       x1="172.94208"
       y1="77.475983"
       x2="26.670298"
       y2="76.313133"
       id="linearGradient2990"
       xlink:href="#linearGradient4689"
       gradientUnits="userSpaceOnUse"
       gradientTransform="translate(100.2702,99.61116)" /><linearGradient
       inkscape:collect="always"
       xlink:href="#linearGradient4671"
       id="linearGradient2255"
       gradientUnits="userSpaceOnUse"
       gradientTransform="matrix(0.562541,0,0,0.567972,-11.5974,-7.60954)"
       x1="224.23996"
       y1="144.75717"
       x2="-65.308502"
       y2="144.75717" /><linearGradient
       inkscape:collect="always"
       xlink:href="#linearGradient4689"
       id="linearGradient2258"
       gradientUnits="userSpaceOnUse"
       gradientTransform="matrix(0.562541,0,0,0.567972,-11.5974,-7.60954)"
       x1="172.94208"
       y1="76.176224"
       x2="26.670298"
       y2="76.313133" /><radialGradient
       inkscape:collect="always"
       xlink:href="#linearGradient2795"
       id="radialGradient2801"
       cx="61.518883"
       cy="132.28575"
       fx="61.518883"
       fy="132.28575"
       r="29.036913"
       gradientTransform="matrix(1,0,0,0.177966,0,108.7434)"
       gradientUnits="userSpaceOnUse" /><linearGradient
       inkscape:collect="always"
       xlink:href="#linearGradient7440"
       id="linearGradient7442"
       x1="55.704288"
       y1="104.47539"
       x2="93.68631"
       y2="104.47539"
       gradientUnits="userSpaceOnUse"
       gradientTransform="translate(-51.858335,-79.375026)" /><linearGradient
       inkscape:collect="always"
       xlink:href="#linearGradient15442"
       id="linearGradient15444"
       x1="90.54921"
       y1="113.21265"
       x2="148.41156"
       y2="113.21265"
       gradientUnits="userSpaceOnUse"
       spreadMethod="pad"
       gradientTransform="translate(-51.858335,-79.375026)" /><linearGradient
       inkscape:collect="always"
       xlink:href="#linearGradient4689"
       id="linearGradient1478"
       gradientUnits="userSpaceOnUse"
       gradientTransform="matrix(0.14883897,0,0,0.15027592,95.414053,62.214052)"
       x1="26.648937"
       y1="20.603781"
       x2="135.66525"
       y2="114.39767" /><linearGradient
       inkscape:collect="always"
       xlink:href="#linearGradient2573"
       id="linearGradient2575"
       x1="101.29215"
       y1="100.98141"
       x2="161.11255"
       y2="100.98141"
       gradientUnits="userSpaceOnUse" /><linearGradient
       inkscape:collect="always"
       xlink:href="#linearGradient4056"
       id="linearGradient4058"
       x1="101.29215"
       y1="100.98141"
       x2="161.11255"
       y2="100.98141"
       gradientUnits="userSpaceOnUse"
       gradientTransform="translate(-51.858335,-79.375026)" /></defs><g
     inkscape:groupmode="layer"
     id="layer3"
     inkscape:label="Layer 3"><path
       style="fill:none;stroke:url(#linearGradient15444);stroke-width:4;stroke-linecap:butt;stroke-linejoin:miter;stroke-dasharray:none;stroke-opacity:1"
       d="m 39.213959,26.766001 c 15.016051,35.907228 30.730881,-0.065 70.034781,4.619857"
       id="path586-7-5"
       sodipodi:nodetypes="cc" /><path
       id="path2380"
       style="display:inline;fill:none;stroke:url(#linearGradient7442);stroke-width:4;stroke-linecap:butt;stroke-linejoin:miter;stroke-dasharray:none;stroke-opacity:1"
       d="m 39.772161,16.047845 c -48.0524307,-50.392899 -36.7710355,78.79282 0.147945,9.841768 m 0.445295,-9.6494 C 8.1547329,-8.8256516 18.607207,66.110228 39.699364,25.791718"
       sodipodi:nodetypes="cccc" /></g><g
     inkscape:groupmode="layer"
     id="layer2"
     inkscape:label="Layer 2"><circle
       style="fill:#ffffff;fill-opacity:1;stroke:none;stroke-width:0.334049;stroke-dasharray:none;stroke-opacity:1"
       id="path1132"
       cx="39.693039"
       cy="20.862146"
       r="7.5795751" /></g><g
     inkscape:label="Layer 1"
     inkscape:groupmode="layer"
     id="layer1"><g
       aria-label="Speasy"
       id="text2135"
       style="font-size:14.5301px;line-height:1.25;fill:url(#linearGradient4058);stroke-width:1.163"><path
         d="m 51.51163,25.166241 q -0.566674,0 -1.046167,-0.276072 Q 49.98597,24.599567 49.709898,24.134604 49.433826,23.65511 49.433826,23.073906 V 22.18757 h 2.092334 v 0.784626 q 0,0.04359 0.01453,0.07265 0.02906,0.01453 0.05812,0.01453 h 6.088112 q 0.02906,0 0.05812,-0.01453 0.02906,-0.02906 0.02906,-0.07265 v -1.903443 q 0,-0.02906 -0.02906,-0.04359 -0.02906,-0.02906 -0.05812,-0.02906 H 51.51163 q -0.566674,0 -1.046167,-0.276072 -0.479493,-0.290602 -0.755565,-0.770095 -0.276072,-0.479493 -0.276072,-1.046167 v -2.106865 q 0,-0.581204 0.276072,-1.046167 0.276072,-0.479493 0.755565,-0.755565 0.479493,-0.290602 1.046167,-0.290602 h 6.291533 q 0.566674,0 1.031637,0.290602 0.479494,0.276072 0.770096,0.755565 0.290602,0.464963 0.290602,1.046167 v 0.886336 h -2.121395 v -0.784625 q 0,-0.04359 -0.02906,-0.05812 -0.02906,-0.02906 -0.05812,-0.02906 h -6.088112 q -0.02906,0 -0.05812,0.02906 -0.01453,0.01453 -0.01453,0.05812 v 1.903443 q 0,0.02906 0.01453,0.05812 0.02906,0.01453 0.05812,0.01453 h 6.204352 q 0.566674,0 1.031637,0.290602 0.479494,0.276072 0.770096,0.755566 0.290602,0.479493 0.290602,1.046167 v 2.106864 q 0,0.581204 -0.290602,1.060698 -0.290602,0.464963 -0.770096,0.755565 -0.464963,0.276072 -1.031637,0.276072 z"
         style="font-weight:800;font-family:Orbitron;-inkscape-font-specification:'Orbitron, Ultra-Bold'"
         id="path436" /><path
         d="m 61.450214,28.508164 v 0 -11.769381 h 6.494954 q 0.566674,0 1.031638,0.290602 0.464963,0.276072 0.741035,0.741035 0.276071,0.464963 0.276071,1.017107 v 4.32997 q 0,0.552143 -0.276071,1.017107 -0.276072,0.464963 -0.741035,0.755565 -0.464964,0.276072 -1.031638,0.276072 h -4.43168 v 3.341923 z m 2.150455,-5.405197 h 4.242789 q 0.04359,0 0.05812,-0.02906 0.02906,-0.02906 0.02906,-0.05812 v -4.126548 q 0,-0.02906 -0.02906,-0.05812 -0.01453,-0.02906 -0.05812,-0.02906 h -4.242789 q -0.02906,0 -0.05812,0.02906 -0.02906,0.02906 -0.02906,0.05812 v 4.126548 q 0,0.02906 0.02906,0.05812 0.02906,0.02906 0.05812,0.02906 z"
         style="font-weight:800;font-family:Orbitron;-inkscape-font-specification:'Orbitron, Ultra-Bold'"
         id="path438" /><path
         d="m 73.103347,25.166241 q -0.552144,0 -1.017107,-0.276072 -0.464963,-0.290602 -0.755565,-0.755565 -0.276072,-0.464964 -0.276072,-1.017107 v -4.32997 q 0,-0.552144 0.276072,-1.017107 0.290602,-0.464963 0.755565,-0.741035 0.464963,-0.290602 1.017107,-0.290602 h 4.446211 q 0.566674,0 1.031637,0.290602 0.464963,0.276072 0.741035,0.741035 0.276072,0.464963 0.276072,1.017107 v 3.211152 h -6.480425 v 1.017107 q 0,0.02906 0.02906,0.05812 0.02906,0.02906 0.05812,0.02906 h 6.393244 v 2.063274 h -6.494955 z m 0.01453,-5.012885 h 4.417151 v -1.264118 q 0,-0.02906 -0.02906,-0.05812 -0.02906,-0.02906 -0.05812,-0.02906 h -4.242789 q -0.02906,0 -0.05812,0.02906 -0.02906,0.02906 -0.02906,0.05812 z"
         style="font-weight:800;font-family:Orbitron;-inkscape-font-specification:'Orbitron, Ultra-Bold'"
         id="path440" /><path
         d="m 83.172698,25.166241 q -0.552143,0 -1.031637,-0.276072 -0.464963,-0.290602 -0.741035,-0.755565 -0.276072,-0.464964 -0.276072,-1.017107 v -3.211152 h 6.480425 v -1.017107 q 0,-0.02906 -0.02906,-0.05812 -0.02906,-0.02906 -0.05812,-0.02906 h -6.393244 v -2.063274 h 6.494955 q 0.566674,0 1.031637,0.290602 0.464963,0.276072 0.741035,0.741035 0.276072,0.464963 0.276072,1.017107 v 6.378714 z m 0.101711,-2.063274 h 4.32997 v -1.3513 h -4.41715 v 1.264119 q 0,0.02906 0.02906,0.05812 0.02906,0.02906 0.05812,0.02906 z"
         style="font-weight:800;font-family:Orbitron;-inkscape-font-specification:'Orbitron, Ultra-Bold'"
         id="path442" /><path
         d="m 92.864269,25.166241 q -0.552144,0 -1.017107,-0.276072 -0.464963,-0.290602 -0.755565,-0.755565 -0.276072,-0.464964 -0.276072,-1.017107 v -0.377783 h 2.063274 v 0.276072 q 0,0.02906 0.02906,0.05812 0.02906,0.02906 0.05812,0.02906 h 4.242789 q 0.02906,0 0.05812,-0.02906 0.02906,-0.02906 0.02906,-0.05812 v -0.944457 q 0,-0.02906 -0.02906,-0.04359 -0.02906,-0.02906 -0.05812,-0.02906 h -4.3445 q -0.552144,0 -1.017107,-0.276072 -0.464963,-0.290602 -0.755565,-0.755565 -0.276072,-0.464963 -0.276072,-1.031637 v -1.147878 q 0,-0.552144 0.276072,-1.017107 0.290602,-0.464963 0.755565,-0.741035 0.464963,-0.290602 1.017107,-0.290602 h 4.446211 q 0.566673,0 1.031637,0.290602 0.464963,0.276072 0.741035,0.741035 0.290602,0.464963 0.290602,1.017107 v 0.377782 h -2.077805 v -0.276071 q 0,-0.02906 -0.02906,-0.05812 -0.02906,-0.02906 -0.05812,-0.02906 H 92.96598 q -0.02906,0 -0.05812,0.02906 -0.02906,0.02906 -0.02906,0.05812 v 0.944456 q 0,0.02906 0.02906,0.05812 0.02906,0.01453 0.05812,0.01453 h 4.3445 q 0.566673,0 1.031637,0.290602 0.464963,0.276071 0.741035,0.741035 0.290602,0.464963 0.290602,1.031637 v 1.147878 q 0,0.552143 -0.290602,1.017107 -0.276072,0.464963 -0.741035,0.755565 -0.464964,0.276072 -1.031637,0.276072 h -4.446211 z"
         style="font-weight:800;font-family:Orbitron;-inkscape-font-specification:'Orbitron, Ultra-Bold'"
         id="path444" /><path
         d="m 102.06183,28.232092 v 0 -2.077805 h 5.04195 q 0.0291,0 0.0581,-0.02906 0.0291,-0.02906 0.0291,-0.05812 v -0.900866 h -4.43168 q -0.56668,0 -1.03164,-0.276072 -0.46496,-0.290602 -0.75556,-0.755565 Q 100.696,23.66964 100.696,23.117497 v -6.349654 h 2.06328 v 6.247943 q 0,0.02906 0.0291,0.05812 0.0291,0.02906 0.0581,0.02906 h 4.25732 q 0.0291,0 0.0581,-0.02906 0.0291,-0.02906 0.0291,-0.05812 v -6.247943 h 2.06327 v 9.415505 q 0,0.566674 -0.27607,1.031637 -0.26154,0.464963 -0.74103,0.741035 -0.46497,0.276072 -1.03164,0.276072 z"
         style="font-weight:800;font-family:Orbitron;-inkscape-font-specification:'Orbitron, Ultra-Bold'"
         id="path446" /></g><g
       id="g16950"
       transform="matrix(0.45885738,0,0,0.45885738,-12.722214,-15.87053)"
       style="display:inline"><path
         style="fill:url(#linearGradient1478);fill-opacity:1;stroke-width:0.264583"
         d="m 113.91105,65.310547 c -1.21276,0.0056 -2.37092,0.109066 -3.38998,0.289388 -3.00202,0.530359 -3.54707,1.640444 -3.54707,3.68763 v 2.703711 h 7.09414 v 0.901237 h -7.09414 -2.66237 c -2.06175,0 -3.86708,1.239234 -4.431767,3.59668 -0.651356,2.70218 -0.680247,4.388385 0,7.209896 0.504277,2.100223 1.708557,3.596679 3.770317,3.596679 h 2.43912 v -3.241146 c 0,-2.341536 2.02596,-4.406965 4.43177,-4.406966 h 7.08588 c 1.97245,0 3.54707,-1.624056 3.54707,-3.604948 v -6.755143 c 0,-1.922552 -1.62189,-3.366764 -3.54707,-3.68763 -1.21867,-0.202862 -2.48314,-0.295023 -3.6959,-0.289388 z m -3.83646,2.174545 c 0.73278,0 1.33118,0.608183 1.33118,1.355989 0,0.745156 -0.5984,1.347721 -1.33118,1.347721 -0.7354,0 -1.33119,-0.602566 -1.33119,-1.347721 0,-0.747806 0.59579,-1.355989 1.33119,-1.355989 z"
         id="path1948" /><path
         style="fill:#ffdf5a;fill-opacity:1;stroke-width:0.264583"
         d="m 122.03872,72.892513 v 3.150195 c 0,2.442304 -2.0706,4.497917 -4.43177,4.497917 h -7.08588 c -1.94094,0 -3.54707,1.661182 -3.54707,3.604948 v 6.755142 c 0,1.922554 1.6718,3.053378 3.54707,3.604949 2.24561,0.660297 4.39903,0.779629 7.08588,0 1.78597,-0.517099 3.54707,-1.557763 3.54707,-3.604949 v -2.70371 h -7.08588 v -0.901237 h 7.08588 3.54707 c 2.06175,0 2.83005,-1.438118 3.54707,-3.596679 0.74065,-2.222206 0.70914,-4.359216 0,-7.209896 -0.50953,-2.05249 -1.48269,-3.59668 -3.54707,-3.59668 z m -3.98529,17.106966 c 0.7354,1e-6 1.33119,0.602567 1.33119,1.347721 0,0.747806 -0.59579,1.35599 -1.33119,1.35599 -0.73278,0 -1.33118,-0.608184 -1.33118,-1.35599 0,-0.745154 0.5984,-1.347721 1.33118,-1.347721 z"
         id="path1950-4" /></g></g></svg>
